<svg width="39" height="39" viewBox="0 0 39 39" fill="none" xmlns="http://www.w3.org/2000/svg">
<path d="M37.7325 9.33238L32.8396 2.72188C32.2379 1.88067 31.4444 1.19498 30.5248 0.721625C29.6053 0.248275 28.5861 0.000899796 27.5519 2.86388e-06H11.4481C10.4189 -0.000963194 9.40417 0.24249 8.48742 0.710328C7.57067 1.17817 6.77812 1.85701 6.175 2.691L1.19438 9.34863C0.383442 10.4921 -0.0353509 11.8675 0.000679814 13.2689C0.0367106 14.6703 0.525627 16.0223 1.39425 17.1226L15.6813 37.1556C16.1366 37.7322 16.7169 38.1978 17.3784 38.5173C18.0399 38.8368 18.7654 39.0018 19.5 39C20.2472 38.9985 20.9842 38.8256 21.6541 38.4946C22.324 38.1636 22.9091 37.6833 23.3643 37.0906L37.5375 17.2803C38.445 16.1639 38.9565 14.7779 38.9918 13.3396C39.0271 11.9013 38.5842 10.4919 37.7325 9.33238ZM30.212 4.63288L35.1163 11.2596C35.1423 11.2954 35.1488 11.3376 35.1748 11.375H27.2253L24.9048 3.25H27.5519C28.0734 3.25162 28.587 3.37799 29.0498 3.61856C29.5126 3.85913 29.911 4.20691 30.212 4.63288ZM19.5 31.0668L15.1125 14.625H23.8875L19.5 31.0668ZM15.1548 11.375L17.4753 3.25H21.5248L23.8453 11.375H15.1548ZM8.80262 4.61013C9.10414 4.18988 9.50129 3.84738 9.96128 3.61089C10.4213 3.37439 10.9309 3.2507 11.4481 3.25H14.0953L11.7747 11.375H3.76675C3.7895 11.3393 3.796 11.2954 3.822 11.2613L8.80262 4.61013ZM3.978 15.1531C3.86067 14.9874 3.75997 14.8105 3.67738 14.625H11.752L16.6173 32.8738L3.978 15.1531ZM22.3779 32.89L27.2529 14.625H35.3551C35.2504 14.8676 35.1179 15.0971 34.9603 15.3091L22.3779 32.89Z" fill="black"/>
</svg>
